<mxfile host="app.diagrams.net" modified="2024-06-03T15:24:20.233Z" agent="Mozilla/5.0 (Windows NT 10.0; Win64; x64) AppleWebKit/537.36 (KHTML, like Gecko) Chrome/125.0.0.0 Safari/537.36" version="24.4.13" etag="Hwhw2nMfVG4ROMqp9dF8" type="github">
  <diagram name="Page-1" id="p1K5xeUqyUEgZiz8qX0X">
    <mxGraphModel>
      <root>
        <mxCell id="0" />
        <mxCell id="1" parent="0" />
      </root>
    </mxGraphModel>
  </diagram>
</mxfile>
